.



Gangs.of.New.York.Remastered.2002.Blu-ray.DTS.720p.x264.HDBRiSe

167 min  -  Crime | Drama | History
Director: Martin Scorsese



   In 1863, Amsterdam Vallon returns to the Five Points area of New York City seeking  revenge against Bill the Butcher, his father\'s killer.


	
IMDb rating : 7.4/10  (too little if you ask me ;)





Encode info:

Complete name                    : Gangs.of.New.York.Remastered.2002.Blu-ray.DTS.720p.x264.HDBRiSe.mkv
Format                           : Matroska
File size                        : 7.91 GiB
Duration                         : 2h 46mn
Overall bit rate                 : 6 799 Kbps
Movie name                       : \"Encoded_by_HDBRiSe\"
Encoded date                     : UTC 2010-02-12 18:25:19
Writing application              : mkvmerge v3.1.0 (\'Happy up here\') built on Jan 19 2010 12:09:24
Writing library                  : libebml v0.7.9 + libmatroska v0.8.1

Video
ID                               : 1
Format                           : AVC
Format/Info                      : Advanced Video Codec
Format profile                   : High@L4.1
Format settings, CABAC           : Yes
Format settings, ReFrames        : 12 frames
Muxing mode                      : Container profile=Unknown@4.1
Codec ID                         : V_MPEG4/ISO/AVC
Duration                         : 2h 46mn
Bit rate                         : 5 154 Kbps
Nominal bit rate                 : 5 290 Kbps
Width                            : 1 280 pixels
Height                           : 544 pixels
Display aspect ratio             : 2.35:1
Frame rate                       : 23.976 fps
Resolution                       : 8 bits
Colorimetry                      : 4:2:0
Scan type                        : Progressive
Bits/(Pixel*Frame)               : 0.309
Stream size                      : 5.99 GiB (76%)
Writing library                  : x264 core 84 r1416 fcf70c2
Language                         : English

Audio
ID                               : 2
Format                           : DTS
Format/Info                      : Digital Theater Systems
Codec ID                         : A_DTS
Duration                         : 2h 46mn
Bit rate mode                    : Constant
Bit rate                         : 1 510 Kbps
Channel(s)                       : 6 channels
Channel positions                : Front: L C R, Surround: L R, LFE
Sampling rate                    : 48.0 KHz
Resolution                       : 24 bits
Stream size                      : 1.76 GiB (22%)
Language                         : English

Text #1
ID                               : 3
Format                           : ASS
Codec ID                         : S_TEXT/ASS
Codec ID/Info                    : Advanced Sub Station Alpha
Language                         : Romanian

Text #2
ID                               : 4
Format                           : ASS
Codec ID                         : S_TEXT/ASS
Codec ID/Info                    : Advanced Sub Station Alpha
Language                         : English

Text #3
ID                               : 5
Format                           : ASS
Codec ID                         : S_TEXT/ASS
Codec ID/Info                    : Advanced Sub Station Alpha
Language                         : French

Text #4
ID                               : 6
Format                           : ASS
Codec ID                         : S_TEXT/ASS
Codec ID/Info                    : Advanced Sub Station Alpha
Language                         : German

Text #5
ID                               : 7
Format                           : ASS
Codec ID                         : S_TEXT/ASS
Codec ID/Info                    : Advanced Sub Station Alpha
Language                         : Polish








Enjoy!